<?xml version="1.0" encoding="utf-8"?>
<!-- Generator: Adobe Illustrator 16.0.0, SVG Export Plug-In . SVG Version: 6.00 Build 0)  -->
<!DOCTYPE svg PUBLIC "-//W3C//DTD SVG 1.1//EN" "http://www.w3.org/Graphics/SVG/1.1/DTD/svg11.dtd">
<svg version="1.1" id="Camada_1" xmlns="http://www.w3.org/2000/svg" xmlns:xlink="http://www.w3.org/1999/xlink" x="0px" y="0px"
	 width="200px" height="100px" viewBox="0 0 200 100" enable-background="new 0 0 200 100" xml:space="preserve">
<g>
	<g>
		<g>
			<path fill="#454545" d="M51.297,50.611c-1.275-0.086-0.902-1.58-1.836-2.106c-1.626,1.942-2.57,4.134-2.709,6.69
				c-0.033,0.652-0.061,1.438,0.389,1.744c3.004,2.053,0.357,2.832-0.861,3.832c-0.85,0.701-1.866,1.201-3.113,1.979
				c0.607,0,0.861,0.059,1.074-0.008c3.742-1.184,3.693-1.172,4.652,2.643c1.629,6.504-13.707,28-12.25,18.295
				c0.613-4.098-12.165-8.725-9.072-11.926c-0.203-0.111-0.406-0.223-0.609-0.334c-2.551,3.173-2.555,3.17-5.104,6.346
				c-1.991,2.479,0.934-1.11-1.075,1.354c-0.516,0.633-1.885,2.473-2.347,1.75c-0.58-0.906-0.621-1.105-0.139-1.709
				c4.026-5.024,1.464-1.959,5.636-6.861c1.86-2.188,1.31-5.1,3.046-7.454c1.675,1.71,2.751,5.735,6.273,2.677
				c0.906-0.789,2.586-1.93,1.946-3.424c-0.946-2.217-3.953-2.729-6.425-1.449c-0.724-3.894-3.505-5.9-10.988-4.029
				c1.247,2.117,3.737,2.556,5.631,4.384c-2.331-0.407-3.682-1.836-5.302-2.741c-0.742-0.416-1.207-1.85-2.397-0.879
				c-0.994,0.811-1.708,1.815-1.23,3.227c0.111,0.324,0.229,0.647,0.379,1.076c-2.614-1.994-2.73-4.591-0.305-6.74
				c1.904-1.688,4.213-2.459,6.727-2.834c3.867-0.577,7.651-1.438,10.544-4.412c0.979-1.009,1.751-2.101,1.943-3.599
				c-3.659,4.898-9.08,6.148-14.533,7.253c-2.718,0.549-5.191,1.422-6.991,3.926c-0.035-3.649,1.746-5.672,5.245-6.366
				c2.9-0.576,5.969-0.709,8.295-2.993c-3.69,1.434-7.497,2.204-11.529,2.208c1.741-0.542,2.846-1.635,3.341-3.323
				c-0.031,0.428-0.249,0.989-0.056,1.255c0.438,0.61,0.912,0.043,1.302-0.223c1.536-1.046,2.233-2.683,2.871-4.319
				c1.157-2.967,2.894-5.12,6.338-5.566c1.404-0.182,2.874-0.745,3.531-2.313c-2.015,0.964-4.066,1.745-6.241,1.976
				c-2.511,0.265-3.463,2.874-5.672,3.522c1.533-1.53,1.944-3.724,3.184-5.417c1.425-1.945,3.462-3.208,6.095-4.944
				c-1.957,0.045-2.903,0.854-4.115,1.438c0.39-2.552,2.191-3.458,4.763-4.554c-1.667-0.088-2.552-0.135-3.58-0.189
				c5.195-3.835,6.823-10.625,12.477-13.627c-0.179,1.376,1.717,0.864,2.592,1.693c1.841,1.741,3.028,3.889,4.489,5.833
				c2.089,2.781,1.809,4.543-0.482,7.254c-0.859,1.019-0.033,1.767,0.305,2.629c0.464,1.189,1.83,1.308,2.502,2.228
				c-1.51,0.101-1.176,1.483-1.229,2.216c-0.076,1.078,1.086,0.78,1.812,0.901c0.795,0.132,1.759-0.468,2.355,0.531l0.057-0.063
				c-1.217,0.125-2.537-0.487-3.826,0.431c0.834,0.972,2.033,0.249,2.757,0.934c-0.791,0.652-2.562-0.492-2.58,0.859
				c-0.021,1.418,0.312,2.66-1.106,3.593c-0.181,0.12-0.318,0.908,0.358,0.983c3.031,0.338,1.19,1.628,0.457,2.546
				c-3.472,4.337-7.003,8.625-10.479,12.958c-0.39,0.483-1.184,0.868-0.667,2.103c2.328-0.291,4.795-0.389,7.152-0.945
				c2.813-0.668,3.534-2.01,3.206-4.91c-0.124-1.08,0.34-2.098,0.381-3.117c0.115-2.898,3.145-4.52,3.157-7.55
				C50.018,46.965,50.651,48.791,51.297,50.611z M37.685,25.374c0.11-1.656-1.013-1.992-2.302-2.17
				c-0.447-0.062-1.097-0.151-1.076,0.37c0.034,0.978,0.026,2.273,0.611,2.84c0.933,0.902,1.238-0.872,2.067-0.999
				c0.262-0.041,0.524-0.078,0.788-0.116c-2.706,2.093-2.655,4.79-1.682,7.721c0.08-2.563,0.98-4.727,2.845-6.423
				c1.592,1.698,2.65,3.662,2.758,6.083c0.561-2.568,1.344-5.136-1.48-6.906c1.262-0.797,1.547,1.407,2.34,0.516
				c0.438-0.493,0.521-1.75,0.203-2.382c-0.779-1.557-2.019,0.096-3.033,0.042c-0.079-0.946,0.504-0.988,0.982-1.193
				c0.721-0.309,2.007-0.176,1.551-1.571c-0.361-1.101-1.229-1.446-2.331-1.117c-0.802,0.239-1.5,0.098-2.286-0.225
				c-1.287-0.528-2.34,0.084-2.692,1.338c-0.387,1.377,1.03,1.293,1.717,1.422C38.707,22.987,38.512,24.017,37.685,25.374z
				 M41.85,41.353c-0.459,0.848-0.69,1.129-0.774,1.45c-1.673,6.275-5.582,10.744-11.271,13.648
				c-1.43,0.729-0.965,1.451-0.465,2.246c1.246,1.979,3.645,2.076,5.11,0.272c1.784-2.192,3.593-4.366,5.333-6.596
				c0.683-0.873,1.661-1.604,2.038-3.238c-1.842,1.732-3.254,3.201-4.815,4.49c-1.557,1.285-3.088,2.687-5.144,3.203
				C36.623,52.822,41.424,48.906,41.85,41.353z"/>
			<path fill="#454545" d="M53.942,38.434c-1.205-0.241-0.285,0.946-0.848,1.195c-0.828-0.85-1.562-1.774-1.799-3.007l-0.059,0.063
				c1.012,0.237,1.121-0.368,1.06-1.133c2.304-1.006,3.612-3.149,4.562-5.133c0.82-1.713-1.418-1.127-2.289-1.313
				c-0.984-0.211-2.176,0.259-2.594-1.14c-0.398-1.339-0.285-2.608,0.641-3.74c0.705-0.859,1.727-1.202,2.662-1.676
				c0.94-0.477,1.934-0.846,2.875-1.319c0.383-0.193,1.021-0.612,0.978-0.806c-0.817-3.739,3.128-1.67,4.002-3.349
				c-0.087,2.426-1.448,3.995-3.334,5.203c-0.663,0.426-1.407,0.729-2.095,1.12c-1.139,0.647-2.869,1.276-2.514,2.675
				c0.326,1.292,2.297,1.293,3.504,1.935c0.846,0.45,1.188-0.562,1.527-1.098c1.446-2.293,3.495-4.192,4.448-6.814
				c0.282-0.781,2.308-2.608,3.033-3.021c-0.045,0.979-1.257,3.31-1.81,3.821c-1.645,1.522-2.541,3.6-4.018,5.214
				c-1.762,1.927-1.641,3.329,0.303,5.174c1.619,1.537,2.17,0.907,2.674-0.619c0.355-1.079,0.535-2.23,0.666-3.365
				c0.301-2.618,1.586-4.576,4.104-6.327c-0.142,1.771-0.544,3.204-0.19,4.618c0.074,0.292,0.289,0.875-0.217,0.781
				c-2.822-0.522-1.857,1.746-2.166,2.96c-0.299,1.186-0.205,2.47-0.484,3.663c-0.387,1.64-1.584,2.449-3.237,2.659
				c-1.53,0.194-1.772-0.766-2.203-1.959c-1.071-2.97-2.013-3.09-3.845-0.505C56.085,34.874,54.139,36.109,53.942,38.434z"/>
			<path fill="#454545" d="M52.956,53.773c1.852,0.908,3.48,0.332,4.874-0.918c1.431-1.283,0.925-2.834,0.401-4.405
				c-0.521-1.565-1.4-2.834-2.633-3.918c0.687-0.578,1.084,0.5,1.805,0.183c-0.248-1.372-1.846-2.129-1.797-3.635
				c2.703,3.193,5.016,6.504,3.838,11.064c-0.562,2.172-2.519,2.2-4.092,2.74C54.36,55.227,53.227,55.271,52.956,53.773z"/>
		</g>
	</g>
	<g>
		<path fill="#454545" d="M62.606,57.729v-7.44c1.705,0,2.557-0.651,2.557-1.952c0-1.193-0.65-1.79-1.953-1.79
			c-1.317,0-1.975,0.818-1.975,2.455v18.541h-8.439v-17.67c0-1.829,0.184-3.33,0.551-4.499c0.368-1.172,0.995-2.264,1.881-3.274
			c0.998-1.124,2.245-2.01,3.741-2.66c1.497-0.652,3.042-0.978,4.636-0.978c2.882,0,5.303,0.97,7.264,2.91
			c1.961,1.939,2.941,4.344,2.941,7.213c0,2.784-0.88,5.043-2.64,6.775c-1.607,1.595-4.033,2.392-7.275,2.392L62.606,57.729z"/>
		<path fill="#454545" d="M83.625,50.013v17.633h-7.174V43.53h9.205c2.803,0,4.976,0.693,6.52,2.083
			c1.719,1.556,2.579,3.527,2.579,5.919c0,2.438-1.066,4.493-3.198,6.166l4.134,9.946h-7.526l-3.481-7.773v-6.203h0.565
			c1.508,0,2.262-0.647,2.262-1.942c0-1.144-0.872-1.714-2.616-1.714h-1.271V50.013z"/>
		<path fill="#454545" d="M108.802,42.928c3.415,0,6.345,1.243,8.791,3.728c2.443,2.485,3.665,5.46,3.665,8.923
			c0,3.521-1.23,6.513-3.692,8.975c-2.463,2.463-5.453,3.693-8.975,3.693c-3.5,0-6.485-1.235-8.959-3.709
			c-2.474-2.473-3.709-5.46-3.709-8.958c0-3.534,1.245-6.525,3.736-8.976C102.15,44.154,105.197,42.928,108.802,42.928z
			 M108.59,50.031c-1.473,0-2.729,0.543-3.764,1.625c-1.037,1.084-1.555,2.391-1.555,3.923c0,1.531,0.521,2.837,1.562,3.922
			c1.042,1.084,2.295,1.625,3.754,1.625c1.484,0,2.742-0.54,3.773-1.617c1.029-1.077,1.544-2.388,1.544-3.932
			c0-1.542-0.515-2.853-1.544-3.931C111.33,50.57,110.073,50.031,108.59,50.031z"/>
		<path fill="#454545" d="M134.403,50.455v17.191h-7.174V50.455h-5.495v-6.924h18.146v6.924H134.403z"/>
		<path fill="#454545" d="M154.669,52.91v5.372h-4.682c-0.636,0-1.088,0.092-1.352,0.282c-0.266,0.188-0.398,0.508-0.398,0.956
			c0,0.506,0.136,0.838,0.406,0.998c0.272,0.159,0.825,0.237,1.662,0.237h4.823v6.891h-5.637c-2.649,0-4.675-0.633-6.079-1.898
			c-1.399-1.267-2.103-3.096-2.103-5.487v-9.453c0-2.309,0.663-4.099,1.989-5.371c1.325-1.271,3.189-1.908,5.592-1.908h6.237v6.925
			h-4.577c-1.235,0-1.854,0.401-1.854,1.202c0,0.471,0.147,0.797,0.441,0.979c0.296,0.183,0.818,0.274,1.572,0.274H154.669
			L154.669,52.91z"/>
		<path fill="#454545" d="M175.464,43.53v15.635c0,2.756-0.82,4.959-2.463,6.606c-1.643,1.648-3.833,2.474-6.565,2.474
			c-2.721,0-4.802-0.802-6.243-2.403c-1.444-1.601-2.167-3.903-2.167-6.906V43.53h7.174v15.388c0,1.472,0.524,2.21,1.572,2.21
			c1.013,0,1.521-0.737,1.521-2.21V43.53H175.464z"/>
		<path fill="#454545" d="M190.429,43.423v6.872c-0.519-0.176-0.918-0.264-1.2-0.264c-0.543,0-1.008,0.2-1.395,0.6
			c-0.389,0.4-0.586,0.884-0.586,1.449c0,0.482,0.213,1.096,0.636,1.839l0.549,0.952c0.989,1.722,1.486,3.383,1.486,4.982
			c0,2.344-0.835,4.329-2.5,5.955c-1.667,1.625-3.702,2.437-6.104,2.437c-1.156,0-2.296-0.265-3.429-0.796v-6.978
			c0.685,0.438,1.292,0.655,1.821,0.655c0.623,0,1.146-0.182,1.562-0.541c0.418-0.356,0.627-0.808,0.627-1.351
			c0-0.353-0.335-1.126-1.008-2.314c-1.07-1.885-1.607-3.771-1.607-5.653c0-2.274,0.809-4.232,2.429-5.875
			c1.621-1.643,3.555-2.463,5.805-2.463C188.504,42.928,189.476,43.094,190.429,43.423z"/>
	</g>
</g>
<g>
	<g>
		<g>
			<path fill="#FFFFFF" d="M51.047,50.258c-1.275-0.085-0.902-1.58-1.836-2.106c-1.626,1.942-2.57,4.134-2.709,6.69
				c-0.033,0.652-0.061,1.438,0.389,1.745c3.004,2.052,0.357,2.831-0.861,3.831c-0.85,0.702-1.866,1.202-3.113,1.979
				c0.607,0,0.861,0.06,1.074-0.008c3.742-1.183,3.693-1.172,4.652,2.644c1.629,6.504-13.707,28-12.25,18.295
				c0.613-4.099-12.165-8.726-9.072-11.927c-0.203-0.11-0.406-0.223-0.609-0.334c-2.551,3.174-2.555,3.17-5.104,6.346
				c-1.991,2.479,0.934-1.11-1.075,1.354c-0.516,0.633-1.885,2.474-2.347,1.75c-0.58-0.906-0.621-1.104-0.139-1.709
				c4.026-5.023,1.464-1.959,5.636-6.861c1.86-2.188,1.31-5.1,3.046-7.453c1.675,1.71,2.751,5.734,6.273,2.676
				c0.906-0.788,2.586-1.929,1.946-3.424c-0.946-2.217-3.953-2.729-6.425-1.448c-0.724-3.894-3.505-5.901-10.988-4.03
				c1.247,2.117,3.737,2.557,5.631,4.385c-2.331-0.407-3.682-1.836-5.302-2.741c-0.742-0.416-1.207-1.851-2.397-0.88
				c-0.994,0.811-1.708,1.815-1.23,3.227c0.111,0.325,0.229,0.648,0.379,1.077c-2.614-1.994-2.73-4.591-0.305-6.74
				c1.904-1.688,4.213-2.459,6.727-2.835c3.867-0.576,7.651-1.438,10.544-4.412c0.979-1.009,1.751-2.101,1.943-3.599
				c-3.659,4.897-9.08,6.147-14.533,7.253C16.273,53.549,13.8,54.421,12,56.926c-0.035-3.65,1.746-5.673,5.245-6.367
				c2.9-0.576,5.969-0.708,8.295-2.993C21.851,49,18.043,49.77,14.012,49.774c1.741-0.542,2.846-1.636,3.341-3.324
				c-0.031,0.428-0.249,0.989-0.056,1.255c0.438,0.61,0.912,0.043,1.302-0.223c1.536-1.046,2.233-2.683,2.871-4.319
				c1.157-2.967,2.894-5.12,6.338-5.566c1.404-0.182,2.874-0.745,3.531-2.313c-2.015,0.964-4.066,1.745-6.241,1.976
				c-2.511,0.265-3.463,2.874-5.672,3.522c1.533-1.53,1.944-3.724,3.184-5.417c1.425-1.945,3.462-3.208,6.095-4.944
				c-1.957,0.045-2.903,0.854-4.115,1.438c0.39-2.552,2.191-3.458,4.763-4.554c-1.667-0.088-2.552-0.135-3.58-0.189
				c5.195-3.835,6.823-10.625,12.477-13.627c-0.179,1.376,1.717,0.864,2.592,1.693c1.841,1.741,3.028,3.889,4.489,5.833
				c2.089,2.781,1.809,4.543-0.482,7.254c-0.859,1.019-0.033,1.767,0.305,2.629c0.464,1.189,1.83,1.308,2.502,2.228
				c-1.51,0.101-1.176,1.483-1.229,2.216c-0.076,1.078,1.086,0.78,1.812,0.901c0.795,0.132,1.759-0.468,2.355,0.531l0.057-0.063
				c-1.217,0.125-2.537-0.487-3.826,0.431c0.834,0.972,2.033,0.249,2.757,0.934c-0.791,0.652-2.562-0.492-2.58,0.859
				c-0.021,1.418,0.312,2.66-1.106,3.593c-0.181,0.12-0.318,0.908,0.358,0.983c3.031,0.338,1.19,1.628,0.457,2.546
				c-3.472,4.337-7.003,8.625-10.479,12.958c-0.39,0.482-1.184,0.867-0.667,2.102c2.328-0.291,4.795-0.389,7.152-0.945
				c2.813-0.667,3.534-2.01,3.206-4.91c-0.124-1.08,0.34-2.097,0.381-3.117c0.115-2.897,3.145-4.52,3.157-7.55
				C49.768,46.612,50.401,48.437,51.047,50.258z M37.435,25.02c0.11-1.656-1.013-1.992-2.302-2.17
				c-0.447-0.062-1.097-0.151-1.076,0.37c0.034,0.979,0.026,2.273,0.611,2.84c0.933,0.902,1.238-0.872,2.067-0.999
				c0.262-0.041,0.524-0.078,0.788-0.116c-2.706,2.093-2.655,4.79-1.682,7.721c0.08-2.563,0.98-4.727,2.845-6.423
				c1.592,1.698,2.65,3.662,2.758,6.083c0.561-2.568,1.344-5.136-1.48-6.906c1.262-0.797,1.547,1.407,2.34,0.516
				c0.438-0.493,0.521-1.75,0.203-2.382c-0.779-1.557-2.019,0.096-3.033,0.042c-0.079-0.946,0.504-0.988,0.982-1.193
				c0.721-0.309,2.007-0.176,1.551-1.571c-0.361-1.101-1.229-1.446-2.331-1.117c-0.802,0.239-1.5,0.098-2.286-0.225
				c-1.287-0.528-2.34,0.084-2.692,1.338c-0.387,1.377,1.03,1.293,1.717,1.422C38.457,22.633,38.262,23.663,37.435,25.02z
				 M41.6,40.999c-0.459,0.848-0.69,1.129-0.774,1.45c-1.673,6.275-5.582,10.744-11.271,13.648c-1.43,0.729-0.965,1.45-0.465,2.245
				c1.246,1.979,3.645,2.076,5.11,0.273c1.784-2.193,3.593-4.367,5.333-6.597c0.683-0.873,1.661-1.604,2.038-3.237
				c-1.842,1.731-3.254,3.2-4.815,4.489c-1.557,1.285-3.088,2.687-5.144,3.203C36.373,52.469,41.174,48.552,41.6,40.999z"/>
			<path fill="#FFFFFF" d="M53.692,38.08c-1.205-0.241-0.285,0.946-0.848,1.195c-0.828-0.85-1.562-1.774-1.799-3.007l-0.059,0.063
				c1.012,0.237,1.121-0.368,1.06-1.133c2.304-1.006,3.612-3.149,4.562-5.133c0.82-1.713-1.418-1.127-2.289-1.313
				c-0.984-0.211-2.176,0.259-2.594-1.14c-0.398-1.339-0.285-2.608,0.641-3.74c0.705-0.859,1.727-1.202,2.662-1.676
				c0.94-0.477,1.934-0.846,2.875-1.319c0.383-0.193,1.021-0.612,0.978-0.806c-0.817-3.739,3.128-1.67,4.002-3.349
				c-0.087,2.426-1.448,3.995-3.334,5.203c-0.663,0.426-1.407,0.729-2.095,1.12c-1.139,0.647-2.869,1.276-2.514,2.675
				c0.326,1.292,2.297,1.293,3.504,1.935c0.846,0.45,1.188-0.562,1.527-1.098c1.446-2.293,3.495-4.192,4.448-6.814
				c0.282-0.781,2.308-2.608,3.033-3.021c-0.045,0.979-1.257,3.31-1.81,3.821c-1.645,1.522-2.541,3.6-4.018,5.214
				c-1.762,1.927-1.641,3.329,0.303,5.174c1.619,1.537,2.17,0.907,2.674-0.619c0.355-1.079,0.535-2.23,0.666-3.365
				c0.301-2.618,1.586-4.576,4.104-6.327c-0.142,1.771-0.544,3.204-0.19,4.618c0.074,0.292,0.289,0.875-0.217,0.781
				c-2.822-0.522-1.857,1.746-2.166,2.96c-0.299,1.186-0.205,2.47-0.484,3.663c-0.387,1.64-1.584,2.449-3.237,2.659
				c-1.53,0.194-1.772-0.766-2.203-1.959c-1.071-2.97-2.013-3.09-3.845-0.505C55.835,34.52,53.889,35.756,53.692,38.08z"/>
			<path fill="#FFFFFF" d="M52.706,53.42c1.852,0.909,3.48,0.333,4.874-0.917c1.431-1.284,0.925-2.835,0.401-4.406
				c-0.521-1.565-1.4-2.834-2.633-3.918c0.687-0.578,1.084,0.5,1.805,0.183c-0.248-1.372-1.846-2.129-1.797-3.635
				c2.703,3.193,5.016,6.504,3.838,11.064c-0.562,2.173-2.519,2.201-4.092,2.741C54.11,54.873,52.977,54.917,52.706,53.42z"/>
		</g>
	</g>
	<g>
		<path fill="#FFFFFF" d="M62.356,57.375v-7.442c1.705,0,2.557-0.65,2.557-1.951c0-1.193-0.65-1.79-1.953-1.79
			c-1.317,0-1.975,0.818-1.975,2.455v18.541h-8.439V49.518c0-1.829,0.184-3.33,0.551-4.499c0.368-1.172,0.995-2.264,1.881-3.274
			c0.998-1.124,2.245-2.01,3.741-2.66c1.497-0.652,3.042-0.978,4.636-0.978c2.882,0,5.303,0.97,7.264,2.91
			c1.961,1.939,2.941,4.344,2.941,7.213c0,2.784-0.88,5.043-2.64,6.776c-1.607,1.594-4.033,2.391-7.275,2.391L62.356,57.375z"/>
		<path fill="#FFFFFF" d="M83.375,49.66v17.632h-7.174V43.177h9.205c2.803,0,4.976,0.694,6.52,2.083
			c1.719,1.556,2.579,3.527,2.579,5.919c0,2.438-1.066,4.493-3.198,6.166l4.134,9.946h-7.526l-3.481-7.773v-6.203H85
			c1.508,0,2.262-0.647,2.262-1.942c0-1.144-0.872-1.715-2.616-1.715h-1.271V49.66z"/>
		<path fill="#FFFFFF" d="M108.552,42.575c3.415,0,6.346,1.243,8.791,3.728c2.443,2.485,3.665,5.459,3.665,8.923
			c0,3.521-1.229,6.512-3.692,8.975s-5.453,3.693-8.975,3.693c-3.499,0-6.485-1.235-8.959-3.709s-3.709-5.46-3.709-8.958
			c0-3.534,1.245-6.526,3.736-8.976C101.9,43.8,104.947,42.575,108.552,42.575z M108.34,49.678c-1.473,0-2.728,0.542-3.763,1.624
			c-1.038,1.085-1.555,2.392-1.555,3.924c0,1.531,0.521,2.838,1.562,3.922c1.043,1.083,2.295,1.625,3.754,1.625
			c1.484,0,2.742-0.54,3.773-1.617c1.029-1.078,1.544-2.387,1.544-3.931c0-1.543-0.515-2.855-1.544-3.932
			C111.08,50.217,109.824,49.678,108.34,49.678z"/>
		<path fill="#FFFFFF" d="M134.153,50.101v17.191h-7.174V50.101h-5.495v-6.924h18.146v6.924H134.153z"/>
		<path fill="#FFFFFF" d="M154.419,52.557v5.372h-4.682c-0.636,0-1.088,0.093-1.352,0.282c-0.266,0.188-0.398,0.508-0.398,0.956
			c0,0.507,0.136,0.839,0.406,0.998c0.272,0.16,0.825,0.237,1.662,0.237h4.823v6.892h-5.637c-2.649,0-4.675-0.633-6.079-1.899
			c-1.399-1.267-2.102-3.095-2.102-5.487v-9.454c0-2.308,0.662-4.098,1.988-5.371c1.325-1.271,3.189-1.907,5.592-1.907h6.237V50.1
			h-4.577c-1.235,0-1.854,0.402-1.854,1.202c0,0.471,0.147,0.798,0.441,0.98c0.296,0.183,0.818,0.273,1.572,0.273L154.419,52.557
			L154.419,52.557z"/>
		<path fill="#FFFFFF" d="M175.214,43.177v15.635c0,2.756-0.82,4.959-2.463,6.607s-3.832,2.474-6.565,2.474
			c-2.721,0-4.802-0.802-6.243-2.403c-1.444-1.601-2.167-3.903-2.167-6.906V43.177h7.174v15.388c0,1.473,0.524,2.21,1.572,2.21
			c1.013,0,1.521-0.737,1.521-2.21V43.177H175.214z"/>
		<path fill="#FFFFFF" d="M190.179,43.07v6.872c-0.519-0.176-0.918-0.264-1.2-0.264c-0.543,0-1.008,0.2-1.395,0.6
			c-0.389,0.401-0.586,0.884-0.586,1.45c0,0.482,0.213,1.095,0.636,1.838l0.549,0.953c0.99,1.722,1.486,3.382,1.486,4.982
			c0,2.344-0.835,4.329-2.5,5.955c-1.667,1.625-3.702,2.437-6.104,2.437c-1.155,0-2.296-0.266-3.429-0.796v-6.979
			c0.685,0.437,1.292,0.655,1.821,0.655c0.623,0,1.146-0.182,1.562-0.54c0.418-0.357,0.627-0.808,0.627-1.352
			c0-0.353-0.335-1.126-1.007-2.315c-1.071-1.884-1.608-3.77-1.608-5.652c0-2.274,0.809-4.232,2.429-5.875
			c1.621-1.643,3.555-2.463,5.805-2.463C188.254,42.575,189.226,42.74,190.179,43.07z"/>
	</g>
</g>
</svg>
